# xmcd
# 
# Track frame offsets:
#     150
#     12610
#     25920
#     38495
#     54012
#     73575
#     84932
#     99627
#     121610
#     142382
#     162935
#     176915
# 
# Disc length: 2568
# 
# Revision: 6
# Processed by: cddbd v1.5.2PL0 Copyright (c) Steve Scherf et al.
# Submitted via: fre:ac v1.0.17
# 
DISCID=980a060c
DTITLE=Various Artist - New Country - November 1995
DYEAR=1995
DGENRE=Country
TTITLE0=Toni Price - Hey
TTITLE1=Daryle Singletary - I Let Her Lie
TTITLE2=Shanley Del - I Don't Wanna Talk About Love
TTITLE3=Jeff Copley - Evergreen
TTITLE4=Wayne Hancock - Cold Lonesome Wind
TTITLE5=The Derailers - Just One More Time
TTITLE6=Kieran Kane - Je suis tres contendre
TTITLE7=Emmylou Harris - Goin' Back To Harlan
TTITLE8=Toby Keith - Santa I'm Right Here
TTITLE9=Anthony Crawford - The Noise Around Us
TTITLE10=Salamander Crossing - Burning Bridges
TTITLE11=Christine Albert - New Mexico
EXTD=
EXTT0=
EXTT1=
EXTT2=
EXTT3=
EXTT4=
EXTT5=
EXTT6=
EXTT7=
EXTT8=
EXTT9=
EXTT10=
EXTT11=
PLAYORDER=
